<svg xmlns="http://www.w3.org/2000/svg" width="533.33" height="126.67" fill-rule="evenodd" viewBox="0 0 5556 1319" shape-rendering="geometricPrecision" text-rendering="geometricPrecision" image-rendering="optimizeQuality" clip-rule="evenodd"><defs><style><![CDATA[
    .fil2 {fill:#000000}
    .fil1 {fill:#B5121B;fill-rule:nonzero}
    .fil0 {fill:#FFFFFF;fill-rule:nonzero}
   ]]></style></defs><g id="Layer_x0020_1"><path fill-opacity="0" d="M0 1319h5556V0H0z" class="fil0"/><path d="M309 824c0-16 12-31 28-31h558c17 0 31-14 31-31V561c0-17-14-31-31-31H341c-17 0-31-14-31-31V298c0-17 14-31 31-31h554c17 0 31-14 31-31V36c0-17 14-31 31-31h834c17 0 31 14 31 31v200c0 17-14 31-31 31h-541c-17 1-30 15-30 31v201c0 17 13 31 30 31h541c17 0 31 14 31 31v201c0 17-14 31-31 31h-541c-17 1-30 15-30 31v201c0 17 13 31 30 31h541c17 0 31 14 31 31v201c0 17-14 31-31 31H957c-17 0-31-14-31-31v-201c0-17-14-31-31-31H341c-17 0-31-14-31-31V824z" class="fil1"/><path d="M2734 253h-604v821h623V929h-455V727h430V582h-430V398h436zM3370 653c0-134-93-204-212-204-87 0-156 45-176 95h-2V252h-160v821h160V724c0-93 55-141 126-141 102 0 104 76 104 120v369h160V651zM3984 466h-170l-129 448h-3l-126-448h-178l218 608h169zM4131 709c9-80 49-128 125-128 51 0 114 30 124 128h-248zm241 186c-13 43-58 66-103 66-129 0-138-103-143-149h418v-29c0-278-166-335-286-335-267 0-292 235-292 308 0 251 132 333 303 333 104 0 225-48 268-194h-165zM4596 1074h160V757c0-68 23-145 148-145 15 0 32 0 46 2V452c-10-1-21-2-31-2-97 0-134 59-167 121h-2V466h-153v609zM5139 301h-160v649c0 79 25 132 164 132h21c25 0 50-1 76-2V959c-11 1-23 2-33 2-65 0-66-14-66-49V581h100V467h-100V302z" class="fil2"/></g></svg>